<svg xmlns="http://www.w3.org/2000/svg" id="canvas" viewBox="262.757 241.628 743.319 123.147"><path d="M 326.68,252.04 C 325.16 252.30, 324.15 252.72, 322.42 255.17 C 320.69 257.62, 320.24 259.72, 318.03 264.28 C 315.83 268.83, 314.46 272.09, 311.39 277.93 C 308.31 283.77, 306.35 287.21, 302.67 293.48 C 298.99 299.75, 296.80 302.95, 292.98 309.27 C 289.16 315.58, 287.02 319.27, 283.55 325.05 C 280.08 330.83, 278.36 333.56, 275.64 338.16 C 272.92 342.75, 271.58 344.61, 269.93 348.01 C 268.28 351.42, 267.49 353.07, 267.39 355.18 C 267.29 357.30, 268.26 357.96, 269.41 358.59 C 270.56 359.22, 271.75 358.57, 273.14 358.32 C 274.54 358.07, 276.04 358.11, 276.39 357.33 C 276.74 356.55, 276.35 355.46, 274.89 354.40 C 273.42 353.35, 270.89 352.23, 269.07 352.04 C 267.25 351.86, 266.08 352.53, 265.80 353.47 C 265.52 354.41, 266.67 355.65, 267.68 356.73 C 268.68 357.80, 269.61 358.74, 270.85 358.83 C 272.09 358.91, 272.84 358.78, 273.87 357.15 C 274.90 355.51, 274.76 353.96, 276.02 350.65 C 277.27 347.34, 277.88 345.27, 280.16 340.60 C 282.43 335.92, 284.11 333.12, 287.40 327.29 C 290.69 321.47, 292.78 317.76, 296.61 311.47 C 300.43 305.18, 302.63 302.00, 306.53 295.83 C 310.42 289.66, 312.61 286.27, 316.10 280.62 C 319.60 274.98, 321.31 271.88, 324.01 267.60 C 326.72 263.32, 328.42 261.98, 329.63 259.23 C 330.83 256.49, 330.60 255.30, 330.02 253.86 C 329.43 252.42, 328.20 251.78, 326.68 252.04" style="stroke: black; fill: black;"/><path d="M 327.54,256.25 C 326.64 257.74, 326.63 259.42, 327.11 262.55 C 327.58 265.69, 328.69 267.72, 329.91 271.93 C 331.13 276.15, 332.14 278.91, 333.22 283.63 C 334.29 288.34, 334.73 290.66, 335.28 295.52 C 335.83 300.39, 335.88 303.03, 335.97 307.94 C 336.05 312.85, 335.83 315.39, 335.71 320.08 C 335.58 324.77, 335.52 327.13, 335.36 331.39 C 335.20 335.66, 334.70 337.95, 334.90 341.40 C 335.10 344.85, 335.46 346.43, 336.35 348.65 C 337.24 350.88, 338.15 351.90, 339.36 352.53 C 340.57 353.16, 341.59 352.82, 342.41 351.80 C 343.22 350.77, 343.30 349.61, 343.42 347.42 C 343.54 345.23, 343.26 344.08, 343.01 340.86 C 342.77 337.65, 342.42 335.49, 342.19 331.34 C 341.97 327.19, 341.96 324.82, 341.91 320.12 C 341.85 315.41, 342.02 312.86, 341.90 307.82 C 341.79 302.79, 341.73 300.04, 341.33 294.94 C 340.93 289.85, 340.66 287.33, 339.89 282.35 C 339.11 277.37, 338.37 274.45, 337.44 270.06 C 336.52 265.66, 336.44 263.36, 335.28 260.37 C 334.12 257.39, 333.19 255.94, 331.64 255.12 C 330.09 254.29, 328.45 254.77, 327.54 256.25" style="stroke: black; fill: black;"/><path d="M 297.33,329.95 C 298.72 330.46, 299.57 329.94, 301.37 329.35 C 303.16 328.76, 304.04 328.50, 306.31 327.00 C 308.58 325.50, 309.65 323.72, 312.70 321.85 C 315.75 319.98, 318.03 319.22, 321.56 317.64 C 325.09 316.05, 327.42 315.45, 330.34 313.94 C 333.26 312.43, 335.20 311.61, 336.14 310.08 C 337.08 308.55, 336.72 307.05, 335.03 306.29 C 333.34 305.52, 331.04 305.61, 327.69 306.27 C 324.34 306.92, 322.14 308.12, 318.26 309.56 C 314.39 311.00, 312.00 311.83, 308.33 313.46 C 304.66 315.09, 302.44 315.90, 299.91 317.71 C 297.38 319.52, 296.76 320.67, 295.66 322.49 C 294.56 324.31, 294.08 325.31, 294.41 326.80 C 294.75 328.29, 295.94 329.44, 297.33 329.95" style="stroke: black; fill: black;"/><path d="M 375.42,261.93 C 373.80 262.64, 372.78 264.14, 371.52 266.83 C 370.27 269.51, 370.32 271.36, 369.16 275.33 C 367.99 279.30, 367.29 282.05, 365.68 286.66 C 364.07 291.28, 363.00 293.60, 361.13 298.41 C 359.26 303.22, 358.12 305.83, 356.32 310.71 C 354.53 315.58, 353.56 318.25, 352.15 322.78 C 350.74 327.31, 349.99 329.45, 349.27 333.34 C 348.56 337.23, 348.13 339.13, 348.57 342.21 C 349.01 345.30, 349.92 346.62, 351.47 348.77 C 353.02 350.91, 354.12 351.80, 356.32 352.93 C 358.53 354.06, 360.24 354.42, 362.50 354.43 C 364.77 354.43, 366.12 353.78, 367.64 352.96 C 369.16 352.14, 369.37 351.42, 370.10 350.33 C 370.83 349.24, 371.38 348.79, 371.30 347.53 C 371.22 346.27, 370.62 344.90, 369.68 344.03 C 368.74 343.17, 367.76 343.37, 366.61 343.21 C 365.46 343.04, 365.07 343.03, 363.94 343.21 C 362.81 343.40, 361.99 343.65, 360.96 344.15 C 359.94 344.64, 359.49 345.56, 358.83 345.70 C 358.17 345.84, 358.06 345.75, 357.67 344.84 C 357.29 343.93, 357.13 343.24, 356.90 341.14 C 356.67 339.04, 356.24 337.67, 356.52 334.34 C 356.80 331.02, 357.22 328.83, 358.30 324.51 C 359.38 320.19, 360.22 317.49, 361.92 312.74 C 363.62 307.98, 364.75 305.44, 366.78 300.72 C 368.82 296.01, 370.11 293.73, 372.09 289.17 C 374.07 284.62, 375.12 281.87, 376.69 277.95 C 378.26 274.03, 379.36 272.52, 379.94 269.58 C 380.53 266.64, 380.53 264.80, 379.62 263.27 C 378.72 261.73, 377.04 261.21, 375.42 261.93" style="stroke: black; fill: black;"/><path d="M 420.78,324.14 C 421.57 325.57, 422.63 326.37, 424.97 327.11 C 427.31 327.85, 429.13 327.90, 432.48 327.83 C 435.83 327.76, 438.11 327.23, 441.72 326.76 C 445.33 326.30, 447.22 325.89, 450.53 325.51 C 453.83 325.13, 455.60 325.35, 458.26 324.85 C 460.93 324.35, 462.25 323.66, 463.86 323.00 C 465.46 322.34, 465.55 321.96, 466.29 321.56 C 467.04 321.16, 467.45 321.29, 467.56 321.01 C 467.68 320.73, 467.73 320.29, 466.86 320.15 C 466.00 320.01, 464.28 319.96, 463.25 320.31 C 462.21 320.66, 461.04 321.29, 461.68 321.89 C 462.33 322.50, 464.51 323.18, 466.48 323.34 C 468.44 323.51, 469.61 323.16, 471.50 322.73 C 473.39 322.29, 475.35 322.01, 475.92 321.18 C 476.50 320.35, 475.59 319.43, 474.37 318.58 C 473.14 317.73, 471.09 317.44, 469.81 316.92 C 468.53 316.40, 468.77 316.33, 467.96 315.98 C 467.14 315.62, 466.82 315.38, 465.71 315.15 C 464.61 314.92, 464.21 314.89, 462.43 314.83 C 460.65 314.76, 459.43 314.55, 456.81 314.81 C 454.19 315.07, 452.54 315.70, 449.35 316.14 C 446.16 316.57, 444.27 316.81, 440.84 316.98 C 437.41 317.15, 435.30 316.88, 432.18 316.99 C 429.06 317.10, 427.49 316.93, 425.26 317.52 C 423.03 318.12, 421.93 318.65, 421.03 319.98 C 420.14 321.30, 419.99 322.72, 420.78 324.14" style="stroke: black; fill: black;"/><path d="M 586.29,244.92 C 584.90 245.36, 584.21 246.03, 583.19 247.95 C 582.18 249.87, 582.46 251.11, 581.20 254.51 C 579.95 257.91, 579.11 260.29, 576.93 264.94 C 574.75 269.60, 573.22 272.53, 570.31 277.77 C 567.39 283.01, 565.56 285.76, 562.34 291.16 C 559.11 296.55, 557.22 299.54, 554.18 304.74 C 551.14 309.95, 549.79 312.62, 547.13 317.16 C 544.47 321.71, 543.23 323.75, 540.89 327.46 C 538.55 331.17, 537.16 332.82, 535.42 335.72 C 533.68 338.62, 533.15 339.89, 532.18 341.96 C 531.21 344.03, 530.91 344.76, 530.57 346.08 C 530.23 347.39, 530.48 347.74, 530.49 348.52 C 530.50 349.30, 530.23 349.27, 530.63 349.97 C 531.03 350.67, 531.63 351.73, 532.48 352.03 C 533.33 352.32, 533.99 351.98, 534.88 351.45 C 535.77 350.91, 535.98 350.52, 536.92 349.35 C 537.86 348.18, 538.53 347.64, 539.58 345.61 C 540.63 343.59, 540.84 342.25, 542.18 339.23 C 543.51 336.20, 544.32 334.36, 546.25 330.47 C 548.18 326.58, 549.36 324.41, 551.82 319.77 C 554.27 315.12, 555.55 312.44, 558.52 307.25 C 561.48 302.05, 563.32 299.10, 566.63 293.78 C 569.95 288.45, 571.83 285.73, 575.08 280.62 C 578.34 275.50, 580.07 272.74, 582.91 268.21 C 585.74 263.67, 587.51 261.54, 589.24 257.95 C 590.98 254.36, 591.41 252.69, 591.59 250.25 C 591.77 247.81, 591.20 246.82, 590.14 245.75 C 589.07 244.69, 587.68 244.48, 586.29 244.92" style="stroke: black; fill: black;"/><path d="M 547.35,263.03 C 548.90 263.75, 550.41 263.34, 553.61 262.68 C 556.80 262.01, 558.80 260.87, 563.32 259.70 C 567.84 258.52, 570.98 257.77, 576.19 256.80 C 581.41 255.84, 583.98 255.60, 589.38 254.88 C 594.78 254.15, 597.86 253.70, 603.21 253.17 C 608.55 252.64, 611.51 252.42, 616.10 252.23 C 620.69 252.04, 622.76 252.06, 626.15 252.21 C 629.53 252.37, 631.12 252.86, 633.02 253.00 C 634.92 253.15, 634.97 253.03, 635.64 252.94 C 636.30 252.85, 636.13 252.61, 636.34 252.54 C 636.55 252.47, 636.24 252.34, 636.68 252.58 C 637.13 252.82, 637.93 253.84, 638.58 253.75 C 639.23 253.66, 639.83 253.22, 639.93 252.14 C 640.03 251.07, 640.15 249.79, 639.07 248.38 C 637.99 246.98, 637.12 245.83, 634.53 245.12 C 631.94 244.40, 629.89 244.63, 626.11 244.82 C 622.33 245.00, 620.31 245.51, 615.61 246.06 C 610.90 246.61, 607.97 246.91, 602.59 247.56 C 597.21 248.21, 594.16 248.69, 588.69 249.30 C 583.22 249.90, 580.63 249.93, 575.24 250.59 C 569.85 251.25, 566.54 251.71, 561.74 252.60 C 556.95 253.50, 554.43 253.77, 551.26 255.07 C 548.08 256.37, 546.65 257.50, 545.87 259.10 C 545.09 260.69, 545.80 262.32, 547.35 263.03" style="stroke: black; fill: black;"/><path d="M 548.77,300.06 C 549.19 301.11, 549.12 302.06, 550.79 302.73 C 552.46 303.40, 553.96 303.94, 557.13 303.42 C 560.30 302.89, 562.31 301.19, 566.62 300.10 C 570.94 299.01, 573.63 298.67, 578.69 297.95 C 583.76 297.23, 587.16 296.92, 591.93 296.49 C 596.70 296.06, 599.06 296.37, 602.55 295.80 C 606.04 295.24, 608.06 294.78, 609.38 293.66 C 610.69 292.55, 610.56 291.12, 609.10 290.21 C 607.65 289.31, 605.65 289.25, 602.10 289.16 C 598.55 289.07, 596.19 289.37, 591.36 289.76 C 586.52 290.15, 583.12 290.69, 577.93 291.11 C 572.75 291.52, 569.98 291.64, 565.42 291.84 C 560.87 292.04, 558.31 291.51, 555.16 292.08 C 552.02 292.65, 551.00 293.62, 549.70 294.69 C 548.41 295.76, 548.88 296.38, 548.70 297.45 C 548.51 298.52, 548.35 299.00, 548.77 300.06" style="stroke: black; fill: black;"/><path d="M 690.93,303.14 C 690.80 301.53, 689.99 300.45, 688.25 299.11 C 686.51 297.77, 685.16 296.90, 682.23 296.45 C 679.30 295.99, 677.35 296.15, 673.62 296.82 C 669.88 297.49, 667.92 298.40, 663.55 299.79 C 659.17 301.17, 656.68 301.74, 651.72 303.75 C 646.77 305.76, 643.82 307.18, 638.78 309.85 C 633.73 312.52, 630.81 314.16, 626.51 317.10 C 622.21 320.03, 620.18 321.48, 617.29 324.51 C 614.39 327.55, 612.89 329.11, 612.03 332.25 C 611.17 335.39, 611.59 337.53, 612.99 340.19 C 614.39 342.85, 615.94 344.44, 619.04 345.55 C 622.14 346.65, 624.33 346.39, 628.49 345.72 C 632.65 345.06, 635.07 343.93, 639.82 342.22 C 644.57 340.52, 647.10 339.47, 652.24 337.19 C 657.39 334.91, 660.37 333.64, 665.54 330.83 C 670.72 328.02, 673.76 326.04, 678.11 323.12 C 682.46 320.21, 684.79 318.92, 687.29 316.24 C 689.80 313.55, 690.72 311.77, 690.63 309.70 C 690.54 307.63, 689.06 305.97, 686.86 305.87 C 684.66 305.78, 682.36 306.67, 679.63 309.22 C 676.89 311.76, 675.65 314.46, 673.19 318.60 C 670.73 322.75, 669.55 325.72, 667.35 329.95 C 665.14 334.18, 663.84 336.07, 662.18 339.75 C 660.52 343.43, 659.54 345.18, 659.06 348.34 C 658.57 351.51, 658.95 353.25, 659.76 355.56 C 660.57 357.87, 661.78 358.68, 663.10 359.90 C 664.41 361.11, 664.99 361.37, 666.35 361.64 C 667.71 361.90, 668.97 361.80, 669.88 361.21 C 670.79 360.63, 671.24 359.67, 670.89 358.73 C 670.53 357.79, 668.73 357.13, 668.10 356.53 C 667.48 355.93, 667.73 355.99, 667.77 355.74 C 667.80 355.50, 668.29 355.45, 668.29 355.30 C 668.30 355.15, 668.06 355.29, 667.78 354.99 C 667.51 354.68, 666.95 354.81, 666.93 353.78 C 666.90 352.75, 667.22 352.06, 667.67 349.84 C 668.12 347.62, 667.95 345.93, 669.19 342.66 C 670.42 339.40, 671.57 337.38, 673.83 333.53 C 676.09 329.67, 677.86 326.98, 680.49 323.40 C 683.11 319.81, 685.11 318.30, 686.95 315.59 C 688.79 312.88, 689.68 311.50, 689.68 309.84 C 689.67 308.18, 688.49 307.12, 686.94 307.30 C 685.39 307.48, 684.41 308.57, 681.93 310.75 C 679.45 312.92, 678.35 315.17, 674.53 318.20 C 670.71 321.22, 667.74 323.17, 662.83 325.87 C 657.92 328.58, 654.98 329.78, 649.97 331.71 C 644.96 333.65, 642.30 334.42, 637.79 335.53 C 633.27 336.65, 630.75 336.96, 627.40 337.27 C 624.05 337.57, 622.83 337.09, 621.03 337.05 C 619.23 337.01, 618.80 337.54, 618.41 337.08 C 618.02 336.61, 618.27 336.31, 619.08 334.73 C 619.88 333.16, 620.22 331.74, 622.41 329.22 C 624.61 326.69, 626.23 324.93, 630.06 322.11 C 633.88 319.29, 636.76 317.60, 641.54 315.11 C 646.32 312.63, 649.19 311.31, 653.94 309.69 C 658.70 308.07, 661.21 307.72, 665.32 307.02 C 669.43 306.32, 671.45 306.17, 674.50 306.19 C 677.55 306.22, 678.51 306.84, 680.57 307.16 C 682.64 307.47, 683.18 307.77, 684.85 307.77 C 686.51 307.77, 687.67 308.09, 688.89 307.16 C 690.11 306.23, 691.06 304.75, 690.93 303.14" style="stroke: black; fill: black;"/><path d="M 760.57,258.71 C 759.07 258.98, 758.24 259.60, 756.85 261.48 C 755.47 263.35, 755.31 264.86, 753.67 268.10 C 752.02 271.34, 751.10 273.43, 748.64 277.69 C 746.17 281.94, 744.59 284.56, 741.33 289.37 C 738.07 294.19, 735.79 296.87, 732.32 301.76 C 728.86 306.64, 727.10 309.28, 724.02 313.80 C 720.94 318.31, 719.31 320.48, 716.93 324.33 C 714.56 328.18, 713.48 330.29, 712.13 333.03 C 710.77 335.77, 710.73 336.33, 710.15 338.03 C 709.56 339.74, 709.29 340.48, 709.19 341.57 C 709.09 342.66, 709.23 342.96, 709.65 343.47 C 710.08 343.98, 710.77 344.01, 711.30 344.11 C 711.83 344.22, 712.38 343.98, 712.30 344.00 C 712.22 344.02, 710.98 344.12, 710.91 344.21 C 710.84 344.30, 711.39 344.40, 711.96 344.44 C 712.52 344.48, 713.15 344.57, 713.72 344.41 C 714.30 344.25, 714.30 344.31, 714.84 343.63 C 715.39 342.95, 715.55 342.45, 716.45 341.01 C 717.35 339.56, 718.14 339.14, 719.34 336.40 C 720.54 333.67, 720.61 331.26, 722.47 327.34 C 724.32 323.42, 725.76 321.30, 728.60 316.81 C 731.45 312.32, 733.21 309.70, 736.70 304.89 C 740.18 300.08, 742.49 297.42, 746.03 292.74 C 749.57 288.07, 751.35 285.56, 754.40 281.52 C 757.45 277.47, 759.12 275.78, 761.26 272.53 C 763.40 269.28, 764.49 267.74, 765.11 265.26 C 765.73 262.78, 765.25 261.43, 764.35 260.12 C 763.44 258.81, 762.07 258.44, 760.57 258.71" style="stroke: black; fill: black;"/><path d="M 705.42,305.81 C 706.08 306.80, 706.15 307.41, 707.78 307.89 C 709.42 308.36, 710.72 308.82, 713.58 308.19 C 716.44 307.56, 718.07 306.02, 722.10 304.75 C 726.12 303.48, 728.53 302.74, 733.71 301.83 C 738.89 300.92, 742.74 300.79, 748.02 300.21 C 753.30 299.63, 756.01 299.18, 760.12 298.94 C 764.23 298.70, 765.97 299.39, 768.57 299.01 C 771.16 298.64, 771.86 297.69, 773.10 297.05 C 774.33 296.41, 774.35 296.42, 774.74 295.80 C 775.13 295.18, 775.40 294.70, 775.07 293.95 C 774.73 293.20, 774.49 292.69, 773.07 292.06 C 771.66 291.43, 770.72 290.80, 767.99 290.80 C 765.26 290.80, 763.55 291.43, 759.41 292.04 C 755.27 292.65, 752.62 293.23, 747.29 293.85 C 741.97 294.48, 738.14 294.63, 732.79 295.17 C 727.44 295.71, 724.89 296.26, 720.55 296.57 C 716.22 296.87, 714.09 296.08, 711.11 296.71 C 708.13 297.34, 706.98 298.46, 705.66 299.70 C 704.33 300.95, 704.54 301.71, 704.49 302.93 C 704.44 304.15, 704.76 304.82, 705.42 305.81" style="stroke: black; fill: black;"/><path d="M 824.02,305.72 C 823.93 304.14, 823.15 303.24, 821.42 301.78 C 819.69 300.33, 818.53 299.00, 815.39 298.46 C 812.25 297.92, 809.71 298.29, 805.72 299.09 C 801.73 299.89, 799.60 300.83, 795.46 302.48 C 791.32 304.12, 789.06 305.14, 785.02 307.31 C 780.97 309.48, 778.79 310.83, 775.24 313.33 C 771.69 315.83, 769.73 317.11, 767.28 319.81 C 764.83 322.51, 763.87 323.97, 763.01 326.83 C 762.14 329.68, 762.15 331.43, 762.96 334.09 C 763.77 336.75, 764.69 338.29, 767.06 340.13 C 769.42 341.96, 771.30 342.99, 774.79 343.26 C 778.27 343.53, 780.39 342.61, 784.48 341.48 C 788.58 340.35, 790.81 339.35, 795.26 337.62 C 799.70 335.89, 802.09 335.00, 806.70 332.83 C 811.30 330.67, 813.86 329.21, 818.28 326.79 C 822.70 324.37, 825.19 322.95, 828.80 320.72 C 832.41 318.49, 834.75 317.67, 836.33 315.65 C 837.90 313.63, 837.58 311.68, 836.68 310.61 C 835.77 309.53, 833.85 309.31, 831.79 310.27 C 829.73 311.24, 828.51 312.73, 826.38 315.43 C 824.25 318.12, 823.15 320.31, 821.13 323.77 C 819.12 327.22, 817.36 329.28, 816.30 332.69 C 815.24 336.11, 815.17 338.05, 815.85 340.84 C 816.53 343.63, 817.45 344.82, 819.68 346.65 C 821.92 348.49, 823.66 349.89, 827.02 350.00 C 830.38 350.11, 832.91 348.60, 836.49 347.21 C 840.07 345.82, 842.31 345.07, 844.92 343.05 C 847.54 341.03, 849.06 339.02, 849.56 337.10 C 850.06 335.18, 849.22 334.01, 847.42 333.43 C 845.62 332.85, 843.52 333.49, 840.58 334.19 C 837.63 334.90, 835.70 335.91, 832.69 336.97 C 829.69 338.02, 827.51 338.60, 825.53 339.46 C 823.56 340.33, 823.34 341.08, 822.82 341.30 C 822.30 341.51, 822.40 341.50, 822.93 340.56 C 823.45 339.62, 824.09 338.88, 825.46 336.60 C 826.83 334.32, 827.80 332.13, 829.79 329.15 C 831.77 326.18, 833.64 324.57, 835.39 321.73 C 837.13 318.89, 838.24 317.36, 838.52 314.95 C 838.81 312.54, 838.22 310.82, 836.81 309.67 C 835.40 308.53, 833.89 308.22, 831.47 309.22 C 829.05 310.21, 827.97 312.23, 824.70 314.63 C 821.43 317.04, 819.24 318.77, 815.11 321.24 C 810.98 323.71, 808.48 325.06, 804.05 326.98 C 799.62 328.90, 797.21 329.62, 792.96 330.84 C 788.70 332.06, 786.29 332.66, 782.78 333.07 C 779.26 333.49, 777.70 332.98, 775.39 332.92 C 773.09 332.85, 772.41 332.90, 771.26 332.73 C 770.10 332.57, 769.78 332.69, 769.61 332.09 C 769.45 331.50, 769.64 331.08, 770.43 329.75 C 771.21 328.43, 771.68 327.54, 773.54 325.46 C 775.40 323.39, 776.75 321.73, 779.73 319.39 C 782.71 317.06, 784.76 315.67, 788.42 313.79 C 792.09 311.91, 794.36 311.07, 798.06 310.01 C 801.76 308.94, 803.80 308.57, 806.92 308.47 C 810.04 308.36, 811.47 309.18, 813.65 309.48 C 815.82 309.79, 816.15 309.94, 817.79 309.97 C 819.43 310.01, 820.61 310.53, 821.86 309.68 C 823.10 308.83, 824.11 307.30, 824.02 305.72" style="stroke: black; fill: black;"/><path d="M 889.86,252.45 C 888.40 252.53, 887.54 252.88, 886.01 254.63 C 884.48 256.38, 884.08 257.78, 882.21 261.21 C 880.34 264.63, 879.33 267.24, 876.66 271.74 C 873.99 276.25, 872.06 278.90, 868.86 283.72 C 865.66 288.54, 863.84 291.17, 860.67 295.83 C 857.49 300.50, 855.83 302.97, 852.97 307.06 C 850.11 311.15, 848.82 312.97, 846.37 316.26 C 843.92 319.56, 842.07 320.92, 840.71 323.53 C 839.35 326.14, 839.32 327.40, 839.59 329.31 C 839.86 331.21, 840.46 332.05, 842.07 333.05 C 843.67 334.05, 845.28 334.80, 847.62 334.30 C 849.97 333.81, 851.36 332.58, 853.80 330.59 C 856.23 328.60, 857.04 326.54, 859.80 324.37 C 862.56 322.19, 864.35 321.11, 867.58 319.73 C 870.82 318.34, 872.85 317.93, 875.99 317.43 C 879.13 316.94, 880.69 317.01, 883.27 317.25 C 885.85 317.50, 887.12 317.97, 888.87 318.66 C 890.62 319.34, 891.23 319.59, 892.01 320.69 C 892.78 321.79, 892.70 322.46, 892.77 324.17 C 892.83 325.87, 892.68 327.05, 892.34 329.22 C 892.00 331.39, 891.80 332.65, 891.05 335.04 C 890.30 337.43, 889.75 338.78, 888.60 341.18 C 887.45 343.58, 886.45 344.79, 885.30 347.04 C 884.15 349.29, 883.44 350.32, 882.84 352.43 C 882.23 354.54, 881.71 356.12, 882.26 357.59 C 882.82 359.06, 884.02 359.86, 885.59 359.79 C 887.16 359.73, 888.36 358.71, 890.12 357.25 C 891.87 355.80, 892.76 354.81, 894.36 352.52 C 895.96 350.22, 896.72 348.61, 898.10 345.76 C 899.49 342.91, 900.30 341.38, 901.28 338.27 C 902.27 335.16, 902.89 333.39, 903.04 330.20 C 903.19 327.01, 902.88 325.25, 902.02 322.32 C 901.16 319.39, 900.63 317.95, 898.74 315.56 C 896.86 313.16, 895.56 311.76, 892.59 310.34 C 889.62 308.92, 887.50 308.65, 883.90 308.45 C 880.30 308.25, 878.46 308.64, 874.59 309.35 C 870.73 310.07, 868.54 310.61, 864.58 312.03 C 860.63 313.44, 858.42 314.60, 854.81 316.44 C 851.20 318.27, 849.14 319.28, 846.52 321.21 C 843.90 323.14, 842.65 324.22, 841.71 326.10 C 840.77 327.98, 841.20 329.50, 841.83 330.59 C 842.45 331.69, 843.49 332.12, 844.83 331.58 C 846.16 331.05, 847.04 330.27, 848.48 327.93 C 849.93 325.58, 850.21 323.40, 852.06 319.86 C 853.92 316.32, 855.15 314.43, 857.77 310.25 C 860.40 306.06, 862.04 303.57, 865.20 298.93 C 868.37 294.29, 870.18 291.71, 873.61 287.04 C 877.05 282.37, 879.18 279.83, 882.37 275.56 C 885.57 271.30, 887.34 269.03, 889.59 265.70 C 891.84 262.36, 892.87 261.19, 893.61 258.89 C 894.35 256.59, 894.04 255.51, 893.29 254.22 C 892.54 252.93, 891.32 252.37, 889.86 252.45" style="stroke: black; fill: black;"/></svg>
